<svg width="1080" height="1080" viewBox="0 0 1080 1080" fill="none" xmlns="http://www.w3.org/2000/svg">
<g clip-path="url(#clip0_2001_92)">
<rect width="1080" height="1080" fill="white"/>
<path d="M0 0L552 540L0 1080V0Z" fill="#FF0000"/>
<path d="M1080 1080L528 540L1080 0L1080 1080Z" fill="#FF0000"/>
<rect width="1080" height="46" transform="matrix(1 0 0 -1 0 562)" fill="#D9D9D9"/>
<path d="M0 516H1080V470H0V516Z" fill="#D9D9D9"/>
<rect width="1080" height="46" transform="matrix(1 0 0 -1 0 608)" fill="#D9D9D9"/>
<path d="M651.79 542.156H642.353L643.509 535.531L650.821 535.594C652.05 535.573 653.134 535.333 654.071 534.875C655.009 534.396 655.759 533.719 656.321 532.844C656.884 531.969 657.248 530.917 657.415 529.688C657.561 528.625 657.561 527.698 657.415 526.906C657.29 526.094 656.925 525.448 656.321 524.969C655.738 524.469 654.873 524.188 653.728 524.125L648.571 524.094L642.009 562H633.071L640.915 516.5L654.103 516.531C656.019 516.573 657.769 516.854 659.353 517.375C660.936 517.875 662.28 518.635 663.384 519.656C664.509 520.656 665.353 521.906 665.915 523.406C666.478 524.906 666.686 526.677 666.54 528.719C666.373 531.031 665.748 532.979 664.665 534.562C663.603 536.125 662.186 537.344 660.415 538.219C658.665 539.094 656.686 539.594 654.478 539.719L651.79 542.156ZM648.134 562H636.259L641.04 554.469L648.571 554.5C649.8 554.458 650.863 554.167 651.759 553.625C652.655 553.083 653.363 552.354 653.884 551.438C654.405 550.5 654.748 549.427 654.915 548.219C655.04 547.365 655.071 546.49 655.009 545.594C654.946 544.677 654.686 543.906 654.228 543.281C653.769 542.635 652.978 542.271 651.853 542.188L643.79 542.156L645.009 535.531L654.04 535.562L655.571 538.156C657.55 538.219 659.155 538.719 660.384 539.656C661.634 540.573 662.53 541.781 663.071 543.281C663.613 544.781 663.811 546.479 663.665 548.375C663.478 551.333 662.696 553.833 661.321 555.875C659.967 557.896 658.155 559.438 655.884 560.5C653.613 561.542 651.03 562.042 648.134 562Z" fill="#FF0000"/>
<path d="M633.631 535.719L632.506 543.25C632.11 545.812 631.454 548.281 630.537 550.656C629.621 553.01 628.402 555.094 626.881 556.906C625.36 558.719 623.517 560.146 621.35 561.187C619.183 562.208 616.673 562.687 613.819 562.625C611.09 562.562 608.808 561.979 606.975 560.875C605.162 559.771 603.746 558.302 602.725 556.469C601.704 554.635 601.037 552.583 600.725 550.312C600.433 548.021 600.433 545.687 600.725 543.312L601.85 535.75C602.246 533.167 602.902 530.687 603.819 528.312C604.735 525.917 605.954 523.771 607.475 521.875C609.017 519.979 610.881 518.49 613.069 517.406C615.256 516.302 617.798 515.792 620.694 515.875C623.465 515.937 625.756 516.552 627.569 517.719C629.381 518.885 630.787 520.427 631.787 522.344C632.787 524.24 633.423 526.354 633.694 528.687C633.965 531 633.944 533.344 633.631 535.719ZM623.662 543.312L624.756 535.594C624.902 534.531 625.006 533.333 625.069 532C625.152 530.646 625.079 529.333 624.85 528.062C624.621 526.771 624.142 525.698 623.412 524.844C622.683 523.99 621.558 523.531 620.037 523.469C618.371 523.385 616.975 523.719 615.85 524.469C614.746 525.219 613.85 526.229 613.162 527.5C612.475 528.75 611.944 530.094 611.569 531.531C611.215 532.969 610.933 534.344 610.725 535.656L609.662 543.344C609.517 544.427 609.412 545.625 609.35 546.937C609.287 548.25 609.381 549.521 609.631 550.75C609.902 551.958 610.402 552.969 611.131 553.781C611.881 554.573 613.017 555 614.537 555.062C616.142 555.146 617.485 554.833 618.569 554.125C619.652 553.396 620.537 552.437 621.225 551.25C621.912 550.062 622.444 548.771 622.819 547.375C623.194 545.958 623.475 544.604 623.662 543.312Z" fill="#FF0000"/>
<path d="M591.785 534.938L590.441 542.5H572.285L573.597 534.938H591.785ZM579.379 516.5L571.504 562H562.566L570.41 516.5H579.379ZM601.41 516.5L593.504 562H584.66L592.566 516.5H601.41Z" fill="#FF0000"/>
<path d="M550.501 525.062L534.72 562H525.032L546.72 516.5H552.814L550.501 525.062ZM551.657 562L548.532 524.312L549.032 516.5H554.814L560.845 562H551.657ZM554.876 545.031L553.532 552.625H533.532L534.876 545.031H554.876Z" fill="#FF0000"/>
<path d="M514.468 542.156H505.03L506.186 535.531L513.499 535.594C514.728 535.573 515.811 535.333 516.749 534.875C517.686 534.396 518.436 533.719 518.999 532.844C519.561 531.969 519.926 530.917 520.093 529.688C520.238 528.625 520.238 527.698 520.093 526.906C519.968 526.094 519.603 525.448 518.999 524.969C518.415 524.469 517.551 524.188 516.405 524.125L511.249 524.094L504.686 562H495.749L503.593 516.5L516.78 516.531C518.697 516.573 520.447 516.854 522.03 517.375C523.613 517.875 524.957 518.635 526.061 519.656C527.186 520.656 528.03 521.906 528.593 523.406C529.155 524.906 529.363 526.677 529.218 528.719C529.051 531.031 528.426 532.979 527.343 534.562C526.28 536.125 524.863 537.344 523.093 538.219C521.343 539.094 519.363 539.594 517.155 539.719L514.468 542.156ZM510.811 562H498.936L503.718 554.469L511.249 554.5C512.478 554.458 513.54 554.167 514.436 553.625C515.332 553.083 516.04 552.354 516.561 551.438C517.082 550.5 517.426 549.427 517.593 548.219C517.718 547.365 517.749 546.49 517.686 545.594C517.624 544.677 517.363 543.906 516.905 543.281C516.447 542.635 515.655 542.271 514.53 542.188L506.468 542.156L507.686 535.531L516.718 535.562L518.249 538.156C520.228 538.219 521.832 538.719 523.061 539.656C524.311 540.573 525.207 541.781 525.749 543.281C526.29 544.781 526.488 546.479 526.343 548.375C526.155 551.333 525.374 553.833 523.999 555.875C522.645 557.896 520.832 559.438 518.561 560.5C516.29 561.542 513.707 562.042 510.811 562Z" fill="#FF0000"/>
<path d="M471.934 546.188L489.965 516.5H499.09L491.152 562H482.246L487.434 532.312L469.371 562H460.309L468.215 516.5H477.121L471.934 546.188Z" fill="#FF0000"/>
<path d="M446.15 557.718C446.15 556.281 446.629 555.083 447.587 554.125C448.546 553.166 449.744 552.677 451.181 552.656C452.556 552.635 453.712 553.073 454.65 553.968C455.587 554.843 456.067 555.968 456.087 557.343C456.108 558.802 455.629 560 454.65 560.937C453.692 561.875 452.504 562.354 451.087 562.375C449.733 562.396 448.577 561.979 447.619 561.125C446.66 560.25 446.171 559.114 446.15 557.718Z" fill="#FF0000"/>
<path d="M429.522 516.5L421.647 562H412.772L420.616 516.5H429.522ZM451.272 516.5L432.866 543.344H422.866L423.179 534.688H429.147L440.085 516.5H451.272ZM433.991 562L428.397 541.375L435.366 534.781L444.179 562H433.991Z" fill="#FF0000"/>
</g>
<defs>
<clipPath id="clip0_2001_92">
<rect width="1080" height="1080" fill="white"/>
</clipPath>
</defs>
</svg>
